FILE "DESCENT_II.gog" BINARY
  TRACK 01 MODE1/2352
    INDEX 01 00:00:00
  TRACK 02 AUDIO
    INDEX 01 14:18:48
  TRACK 03 AUDIO
    INDEX 01 15:04:48
  TRACK 04 AUDIO
    INDEX 01 20:05:48
  TRACK 05 AUDIO
    INDEX 01 23:47:48
  TRACK 06 AUDIO
    INDEX 01 27:22:48
  TRACK 07 AUDIO
    INDEX 01 29:42:48
  TRACK 08 AUDIO
    INDEX 01 34:09:48
  TRACK 09 AUDIO
    INDEX 01 37:50:48
